<svg width="533" height="469" viewBox="0 0 533 469" fill="none" xmlns="http://www.w3.org/2000/svg">
<path opacity="0.05" d="M281.81 424.569C277.09 420.383 272.118 416.161 267.399 411.507C263.616 415.007 260.085 418.29 256.338 421.538C209.61 461.881 161.441 478.696 132.907 462.35C105.273 446.725 96.5906 400.573 107.651 342.477C108.84 336.198 110.245 329.883 111.902 323.604C106.931 322.125 102.211 320.79 97.4913 319.202C38.6939 299.103 0 266.446 0 233.79C0 201.133 36.0999 171.76 92.5195 152.166C98.8243 150.073 105.489 147.981 112.371 146.104C110.786 140.042 109.561 134.196 108.372 128.567C96.5546 69.6047 104.805 22.5143 132.69 6.6731C161.729 -10.1063 209.862 7.82781 258.247 50.0468C261.058 52.6088 263.904 55.4234 266.966 58.202C271.434 54.0161 275.685 49.7942 280.188 46.0775C325.944 6.60093 371.483 -9.88974 399.368 5.98749C428.407 22.2977 436.909 72.6719 423.939 134.954C423.219 138.923 422.354 142.676 421.345 146.645C427.254 148.269 433.126 150.146 438.567 152.022C496.175 171.616 533.464 202.144 532.996 234.331C532.996 267.204 493.113 299.644 431.938 319.671C428.623 320.609 425.344 321.764 422.03 322.702C423.435 327.357 424.372 332.012 425.344 336.703C437.63 397.109 428.155 446.545 399.621 462.855C392.127 467.041 383.516 469.17 374.761 468.989C348.605 468.953 315.388 453.004 281.882 424.569H281.81ZM328.069 338.976C314.523 358.498 299.607 377.19 283.467 394.944C287.934 399.346 292.438 403.351 296.905 407.068C335.851 440.194 371.735 452.535 388.488 442.972C393.604 438.895 397.783 433.879 400.81 428.286C403.8 422.693 405.565 416.558 405.962 410.316C409.384 387.186 408.411 363.658 403.115 340.817C402.395 336.631 401.53 332.409 400.305 328.007C376.527 333.167 352.388 336.811 328.069 338.94V338.976ZM130.277 346.446C120.621 396.135 127.683 433.193 144.472 442.756C150.416 445.065 156.865 446.112 163.314 445.859C169.763 445.607 176.068 444.055 181.796 441.276C204.062 432.616 224.309 420.095 241.531 404.434C245.061 401.619 248.376 398.372 251.907 395.124C235.406 377.371 220.094 358.679 206.115 339.157C181.904 337.28 157.838 333.852 134.132 328.909C132.654 335.007 131.466 340.817 130.313 346.446H130.277ZM267.651 379.103C278.027 367.664 288.403 355.07 298.815 341.105C288.439 341.575 277.558 341.791 266.714 341.791C255.87 341.791 245.71 341.575 235.55 341.105C246.178 354.854 256.806 367.664 267.651 379.103ZM218.076 151.517C209.105 164.327 200.387 177.822 192.1 192.112C183.85 206.113 176.32 220.33 169.439 234.511C176.536 248.512 184.066 262.73 192.353 277.2C200.603 291.2 209.358 304.985 218.329 318.011C233.893 318.949 250.213 319.491 266.714 319.491C283.215 319.491 299.751 319.022 315.568 317.867C324.07 305.057 332.789 291.273 341.075 277.055C349.362 262.838 357.108 248.368 363.989 234.403C357.144 220.655 349.362 206.438 341.075 192.184C332.825 177.931 324.07 164.399 315.352 151.589C299.571 150.434 283.251 149.713 266.714 149.713C250.177 149.713 233.893 150.398 218.076 151.553V151.517ZM140.184 307.511C156.397 310.939 172.789 313.501 189.29 315.233C183.634 306.392 177.977 297.515 172.537 288.169C167.349 279.076 162.161 269.983 157.442 260.889C150.596 276.73 144.94 292.391 140.22 307.511H140.184ZM360.855 287.917C355.414 297.227 349.974 306.103 344.57 314.728C361.323 312.779 377.968 310 394.361 306.32C389.245 290.587 383.228 275.107 376.419 259.915C371.447 269.225 366.259 278.571 360.819 287.881L360.855 287.917ZM99.8331 173.637C51.6999 190.416 22.6615 214.881 22.6615 234.042C23.5622 240.213 25.7959 246.131 29.2186 251.507C32.6052 256.884 37.1447 261.575 42.4768 265.292C60.887 279.617 82.0354 290.695 104.805 297.948C109.056 299.428 113.524 300.51 118.027 301.918C125.269 278.968 134.023 256.487 144.219 234.511C133.987 212.933 125.341 190.741 118.243 168.116C111.866 169.703 105.742 171.544 99.8331 173.637ZM389.461 234.042C399.945 255.729 408.916 277.993 416.302 300.727C419.364 299.789 422.462 298.85 425.272 297.912C477.909 280.664 510.55 254.322 510.73 233.79C510.73 214.665 480.539 189.947 431.181 173.168C426.209 171.544 420.805 169.92 415.401 168.26C408.267 190.669 399.585 212.644 389.461 234.042ZM360.675 180.421C366.115 189.73 371.303 198.86 376.022 207.953C382.579 193.086 388.236 177.895 393.028 162.487C376.995 158.878 360.783 156.063 344.39 154.079C350.046 162.703 355.487 171.327 360.675 180.421ZM140.436 162.27C145.156 177.209 150.812 192.365 157.442 207.953C162.161 198.86 167.349 189.767 172.537 180.673C177.725 171.58 183.165 162.739 188.822 154.079C171.817 156.136 155.784 158.914 140.436 162.234V162.27ZM295.032 63.1455C291.033 66.6458 286.998 70.3625 282.999 74.1153C299.391 91.6524 314.451 110.2 328.069 129.65C352.1 131.815 375.914 135.531 399.368 140.836C400.305 137.336 400.954 133.835 401.746 130.335C412.807 76.7134 405.998 35.6491 388.056 25.401C384.129 23.3442 379.661 22.3338 375.122 22.4782C355.847 22.406 326.232 36.2986 295.032 63.0734V63.1455ZM143.967 26.0145C127.214 35.5769 120.585 73.8266 130.529 124.201C131.718 129.577 132.907 134.918 134.312 140.511C157.802 135.387 181.58 131.742 205.611 129.541C219.301 110.056 234.433 91.5081 250.934 74.007C248.34 71.445 245.494 69.0995 242.9 66.754C210.042 37.9946 178.482 22.839 157.838 22.839C152.974 22.6947 148.182 23.7772 144.003 26.0145H143.967ZM298.346 127.665C288.619 114.638 278.099 102.081 266.894 90.1368C256.266 101.54 245.638 114.169 235.298 127.665C245.674 127.196 256.05 126.979 266.678 126.979C277.306 126.979 287.934 127.16 298.346 127.665ZM219.518 234.944C219.301 228.954 220.346 222.964 222.616 217.371C224.886 211.742 228.344 206.618 232.776 202.252C237.207 197.886 242.539 194.349 248.412 191.896C254.32 189.442 260.697 188.071 267.146 187.854C280.224 188.251 292.582 193.447 301.517 202.288C310.452 211.129 315.243 222.856 314.847 234.981C315.28 247.069 310.488 258.832 301.553 267.709C292.618 276.55 280.26 281.746 267.182 282.143C260.697 281.963 254.32 280.592 248.412 278.102C242.503 275.612 237.171 272.112 232.776 267.709C228.344 263.343 224.886 258.183 222.616 252.554C220.346 246.925 219.301 240.971 219.518 234.944Z" fill="url(#paint0_linear_38_1506)"/>
<defs>
<linearGradient id="paint0_linear_38_1506" x1="266.5" y1="0" x2="266.5" y2="469" gradientUnits="userSpaceOnUse">
<stop stop-color="#81D8F7"/>
<stop offset="1" stop-color="#81D8F7" stop-opacity="0"/>
</linearGradient>
</defs>
</svg>
